<svg xmlns="http://www.w3.org/2000/svg" xmlns:xlink="http://www.w3.org/1999/xlink" width="200" zoomAndPan="magnify" viewBox="0 0 150 52.499999" height="70" preserveAspectRatio="xMidYMid meet" version="1.2"><defs><clipPath id="a6068dcfc3"><path d="M 6 11.117188 L 37 11.117188 L 37 40.832031 L 6 40.832031 Z M 6 11.117188 "/></clipPath></defs><g id="171b8c237c"><path style=" stroke:none;fill-rule:nonzero;fill:#899b94;fill-opacity:1;" d="M 91.992188 18.265625 C 92.410156 18.453125 92.703125 18.660156 93.027344 18.984375 L 93.296875 19.253906 L 93.585938 19.546875 L 93.886719 19.847656 C 94.097656 20.058594 94.308594 20.269531 94.519531 20.480469 C 94.835938 20.800781 95.15625 21.121094 95.476562 21.441406 L 96.09375 22.058594 L 96.378906 22.347656 C 96.917969 22.894531 97.433594 23.457031 97.9375 24.039062 C 98.234375 24.375 98.546875 24.691406 98.867188 25.007812 L 99.246094 25.382812 L 99.632812 25.765625 C 100.484375 26.605469 101.3125 27.449219 102.085938 28.359375 L 102.226562 28.5 L 102.367188 18.546875 L 104.75 18.546875 L 104.75 34.105469 C 104.1875 33.964844 104.1875 33.964844 103.796875 33.625 C 103.644531 33.476562 103.492188 33.324219 103.34375 33.167969 L 103.089844 32.917969 C 102.816406 32.640625 102.539062 32.367188 102.265625 32.089844 L 101.691406 31.515625 C 101.289062 31.109375 100.886719 30.707031 100.488281 30.304688 C 99.976562 29.789062 99.460938 29.273438 98.949219 28.757812 C 98.457031 28.265625 97.964844 27.773438 97.476562 27.28125 L 97.195312 26.996094 C 96.273438 26.074219 95.359375 25.152344 94.515625 24.152344 L 94.375 24.011719 L 94.234375 33.964844 L 91.851562 33.964844 C 91.851562 31.9375 91.847656 29.914062 91.847656 27.886719 C 91.84375 26.945312 91.84375 26.003906 91.84375 25.0625 C 91.839844 24.15625 91.839844 23.25 91.839844 22.34375 C 91.839844 21.996094 91.839844 21.648438 91.839844 21.300781 C 91.835938 20.816406 91.835938 20.332031 91.835938 19.851562 L 91.835938 18.667969 L 91.851562 18.40625 Z M 91.992188 18.265625 "/><path style=" stroke:none;fill-rule:nonzero;fill:#899b94;fill-opacity:1;" d="M 57.652344 18.546875 C 64.320312 18.546875 64.320312 18.546875 66.011719 19.449219 C 66.730469 19.925781 67.238281 20.527344 67.65625 21.28125 C 68.113281 22.347656 68.140625 23.429688 68.023438 24.574219 C 67.832031 25.464844 67.53125 26.308594 66.964844 27.03125 C 66.605469 27.394531 66.207031 27.660156 65.78125 27.9375 C 66.78125 29.890625 68.003906 31.726562 69.238281 33.535156 L 69.425781 33.824219 L 69.425781 33.964844 C 68.5 34.132812 67.53125 34.269531 66.621094 33.964844 C 65.90625 33.378906 65.519531 32.484375 65.121094 31.667969 C 64.355469 30.085938 64.355469 30.085938 63.207031 28.796875 C 62.230469 28.339844 61.257812 28.5 60.175781 28.5 L 60.035156 33.964844 L 57.652344 33.964844 Z M 60.035156 20.648438 L 60.035156 26.957031 L 61.558594 27 L 62.03125 27.019531 C 62.773438 27.03125 63.355469 26.964844 64.035156 26.644531 C 64.414062 26.429688 64.667969 26.246094 64.976562 25.929688 L 65.160156 25.617188 L 65.351562 25.300781 C 65.65625 24.675781 65.6875 24.082031 65.679688 23.394531 C 65.617188 22.816406 65.417969 22.378906 65.078125 21.910156 C 64.527344 21.359375 63.992188 21.046875 63.257812 20.789062 C 62.070312 20.597656 62.070312 20.597656 60.035156 20.648438 M 79.796875 18.265625 L 80.21875 18.40625 C 80.367188 18.625 80.367188 18.625 80.507812 18.914062 L 80.667969 19.242188 L 80.84375 19.609375 L 81.027344 19.992188 C 81.234375 20.414062 81.433594 20.839844 81.636719 21.261719 C 81.78125 21.554688 81.921875 21.851562 82.066406 22.144531 C 82.289062 22.609375 82.515625 23.074219 82.738281 23.539062 C 83.289062 24.679688 83.847656 25.820312 84.40625 26.957031 L 84.644531 27.445312 L 85.570312 29.324219 C 86.328125 30.863281 87.078125 32.402344 87.789062 33.964844 L 85.125 33.964844 L 83.582031 30.882812 L 76.152344 30.882812 L 74.753906 33.824219 L 74.613281 33.964844 C 74.421875 33.976562 74.234375 33.980469 74.046875 33.980469 L 73.703125 33.976562 L 73.339844 33.972656 L 72.980469 33.972656 C 72.683594 33.96875 72.386719 33.96875 72.089844 33.964844 C 72.277344 33.363281 72.503906 32.816406 72.789062 32.257812 L 72.914062 32.007812 C 73.050781 31.734375 73.1875 31.464844 73.324219 31.191406 L 73.613281 30.617188 C 73.867188 30.109375 74.121094 29.601562 74.378906 29.09375 C 74.832031 28.199219 75.28125 27.300781 75.734375 26.402344 L 75.878906 26.105469 C 76.566406 24.738281 77.242188 23.363281 77.894531 21.972656 C 78.488281 20.714844 79.140625 19.488281 79.796875 18.265625 M 79.796875 22.890625 C 79.53125 23.441406 79.265625 23.992188 79 24.542969 L 78.726562 25.101562 C 77.679688 26.890625 77.679688 26.890625 77.136719 28.777344 L 82.742188 28.777344 C 82.125 27.371094 81.503906 25.96875 80.859375 24.574219 L 80.628906 24.078125 C 80.445312 23.683594 80.261719 23.285156 80.078125 22.890625 Z M 79.796875 22.890625 "/><path style=" stroke:none;fill-rule:nonzero;fill:#899b94;fill-opacity:1;" d="M 122.03125 19.125 C 122.269531 19.246094 122.269531 19.246094 122.410156 19.386719 C 122.386719 20.203125 122.203125 20.984375 121.992188 21.769531 L 121.554688 21.621094 L 120.984375 21.429688 L 120.695312 21.332031 C 119.175781 20.816406 117.480469 20.714844 115.894531 21.023438 C 115.074219 21.304688 114.351562 21.734375 113.71875 22.332031 C 113.09375 23.046875 112.746094 23.808594 112.457031 24.714844 C 112.238281 25.894531 112.277344 27.058594 112.597656 28.21875 C 112.921875 29.054688 113.300781 29.746094 114 30.320312 C 114.871094 31.007812 115.707031 31.410156 116.804688 31.582031 C 118.625 31.757812 120.335938 31.347656 121.992188 30.601562 C 122.0625 30.890625 122.132812 31.179688 122.199219 31.46875 L 122.320312 31.957031 C 122.398438 32.363281 122.429688 32.710938 122.410156 33.125 C 120.390625 33.976562 118.5 34.308594 116.304688 34.046875 C 114.75 33.761719 113.347656 33.136719 112.125 32.132812 C 111.160156 31.203125 110.488281 29.992188 110.085938 28.71875 C 109.671875 27.082031 109.667969 25.449219 110.0625 23.808594 C 110.445312 22.5625 111.003906 21.492188 111.890625 20.527344 C 112.941406 19.554688 114.183594 18.875 115.574219 18.523438 C 117.769531 18.042969 119.960938 18.234375 122.03125 19.125 M 43.773438 18.546875 L 53.023438 18.546875 L 53.023438 20.648438 L 46.15625 20.648438 L 46.15625 25.132812 L 52.042969 25.132812 L 52.042969 27.238281 C 51.578125 27.46875 51.054688 27.394531 50.539062 27.390625 L 50.214844 27.390625 C 49.8125 27.390625 49.414062 27.386719 49.011719 27.386719 L 46.296875 27.375 L 46.15625 33.964844 L 43.773438 33.964844 Z M 43.773438 18.546875 "/><path style=" stroke:none;fill-rule:nonzero;fill:#899b94;fill-opacity:1;" d="M 142.738281 18.6875 C 143.148438 18.910156 143.148438 18.910156 143.4375 19.105469 C 143.367188 19.804688 143.265625 20.410156 143.015625 21.070312 L 142.769531 21.011719 C 140.992188 20.589844 140.992188 20.589844 139.1875 20.726562 C 138.808594 20.859375 138.46875 21.003906 138.15625 21.261719 C 137.925781 21.511719 137.925781 21.511719 137.847656 22.023438 C 137.816406 22.429688 137.839844 22.640625 137.960938 23.039062 C 138.589844 23.933594 139.386719 24.457031 140.335938 24.976562 C 141.5 25.613281 142.53125 26.421875 143.296875 27.515625 C 143.796875 28.503906 143.808594 29.464844 143.773438 30.550781 C 143.730469 31.199219 143.59375 31.71875 143.25 32.277344 C 142.742188 32.902344 142.160156 33.363281 141.421875 33.691406 C 141.117188 33.800781 140.808594 33.890625 140.492188 33.964844 L 140.101562 34.0625 C 138.609375 34.207031 137.054688 34.152344 135.664062 33.53125 C 135.394531 33.378906 135.394531 33.378906 135.027344 33.125 L 135.449219 31.019531 C 136.289062 31.300781 136.289062 31.300781 136.777344 31.519531 C 137.730469 31.875 138.789062 31.941406 139.789062 31.804688 C 140.148438 31.714844 140.449219 31.617188 140.773438 31.441406 C 141.121094 31.078125 141.269531 30.808594 141.417969 30.335938 C 141.5 29.933594 141.511719 29.601562 141.390625 29.203125 C 141.199219 28.792969 141.023438 28.453125 140.683594 28.152344 C 140.414062 27.96875 140.140625 27.808594 139.855469 27.648438 L 139.25 27.289062 L 138.953125 27.117188 C 136.640625 25.785156 136.640625 25.785156 135.96875 24.707031 C 135.527344 23.871094 135.394531 23.097656 135.410156 22.15625 C 135.488281 21.351562 135.765625 20.628906 136.183594 19.9375 C 136.640625 19.335938 137.195312 18.996094 137.878906 18.6875 C 139.519531 18.066406 141.074219 18.203125 142.738281 18.6875 "/><path style=" stroke:none;fill-rule:nonzero;fill:#899b94;fill-opacity:1;" d="M 19.945312 18.828125 C 20.753906 19.046875 21.527344 19.339844 22.292969 19.683594 C 23.238281 20.078125 24.261719 20.132812 25.269531 20.226562 L 25.269531 20.648438 L 24.875 20.804688 C 24.40625 21.035156 24.40625 21.035156 24.175781 21.472656 C 23.929688 22.121094 23.851562 22.695312 23.855469 23.382812 L 23.855469 23.820312 L 23.859375 24.265625 L 23.863281 24.722656 C 23.863281 25.09375 23.867188 25.464844 23.867188 25.835938 L 26.113281 25.976562 L 26.113281 26.394531 L 23.867188 26.394531 L 23.894531 27.273438 C 23.890625 28.363281 23.800781 29.390625 23.273438 30.363281 C 22.738281 31.132812 22.039062 31.734375 21.195312 32.144531 C 20.246094 32.519531 19.277344 32.652344 18.261719 32.5625 C 17.800781 32.484375 17.410156 32.371094 17 32.144531 C 16.550781 31.730469 16.152344 31.289062 15.878906 30.742188 C 15.816406 30.121094 15.785156 29.496094 15.976562 28.898438 C 16.195312 28.476562 16.472656 28.191406 16.824219 27.875 C 17.304688 27.644531 17.605469 27.582031 18.128906 27.613281 C 18.5625 27.683594 18.875 27.839844 19.242188 28.078125 C 19.503906 28.3125 19.503906 28.3125 19.664062 28.636719 C 19.726562 29.027344 19.734375 29.375 19.664062 29.761719 C 19.425781 30.109375 19.425781 30.109375 19.101562 30.320312 C 18.742188 30.382812 18.742188 30.382812 18.402344 30.320312 C 18.140625 30.152344 18.140625 30.152344 17.980469 29.898438 C 18 29.550781 18 29.550781 18.121094 29.199219 L 18.542969 28.777344 L 18.542969 28.21875 C 18.113281 28.175781 17.707031 28.164062 17.28125 28.21875 C 16.84375 28.476562 16.84375 28.476562 16.578125 28.917969 C 16.40625 29.292969 16.316406 29.625 16.300781 30.039062 C 16.371094 30.457031 16.503906 30.796875 16.71875 31.160156 C 17.082031 31.542969 17.378906 31.707031 17.867188 31.90625 C 18.550781 32.03125 19.128906 32.023438 19.804688 31.863281 C 20.21875 31.699219 20.492188 31.496094 20.785156 31.160156 C 21.546875 30.015625 21.671875 28.714844 21.765625 27.375 C 21.769531 27.097656 21.769531 26.816406 21.765625 26.535156 L 20.644531 26.394531 L 20.644531 25.976562 L 21.765625 25.976562 L 21.757812 25.527344 C 21.71875 23.074219 21.71875 23.074219 22.234375 22.128906 C 22.585938 21.574219 22.902344 21.164062 23.449219 20.789062 L 23.132812 20.722656 C 22.367188 20.546875 21.667969 20.34375 20.960938 20 C 20.304688 19.691406 19.832031 19.515625 19.101562 19.527344 C 18.695312 19.664062 18.332031 19.835938 17.980469 20.085938 C 17.671875 20.550781 17.601562 20.796875 17.5625 21.347656 C 17.648438 21.878906 17.648438 21.878906 17.839844 22.332031 L 18.261719 22.472656 L 18.480469 22.050781 L 18.824219 21.628906 C 19.320312 21.542969 19.320312 21.542969 19.804688 21.628906 C 20.085938 21.859375 20.085938 21.859375 20.222656 22.191406 C 20.214844 22.621094 20.214844 22.621094 20.085938 23.03125 C 19.847656 23.285156 19.847656 23.285156 19.523438 23.453125 C 19.121094 23.574219 19.121094 23.574219 18.683594 23.59375 C 18.171875 23.40625 17.886719 23.222656 17.515625 22.820312 C 17.261719 22.441406 17.152344 22.160156 17.105469 21.707031 C 17.074219 20.515625 17.074219 20.515625 17.367188 19.957031 C 17.722656 19.5 18.039062 19.246094 18.542969 18.964844 C 19.035156 18.800781 19.433594 18.761719 19.945312 18.828125 M 127.738281 18.546875 L 130.121094 18.546875 L 130.261719 33.964844 L 127.738281 33.964844 Z M 127.738281 18.546875 "/><g clip-rule="nonzero" clip-path="url(#a6068dcfc3)"><path style=" stroke:none;fill-rule:nonzero;fill:#899b94;fill-opacity:1;" d="M 21.046875 11.054688 L 21.359375 11.054688 C 23.027344 11.058594 24.542969 11.21875 26.113281 11.816406 L 26.386719 11.917969 C 28.804688 12.8125 30.847656 14.394531 32.558594 16.304688 C 34.238281 18.410156 35.410156 20.9375 35.867188 23.59375 C 36.21875 26.230469 35.925781 28.828125 34.960938 31.292969 C 33.894531 33.792969 32.332031 35.976562 30.195312 37.675781 C 28.046875 39.285156 25.535156 40.339844 22.859375 40.667969 C 22.636719 40.679688 22.410156 40.6875 22.1875 40.695312 L 21.671875 40.710938 C 18.941406 40.769531 16.441406 40.175781 14.035156 38.894531 C 11.621094 37.558594 9.761719 35.746094 8.308594 33.40625 C 7.011719 31.113281 6.25 28.539062 6.152344 25.90625 C 6.203125 23.222656 7.007812 20.601562 8.324219 18.277344 C 9.753906 15.953125 11.652344 14.085938 14.046875 12.773438 C 15.175781 12.171875 16.3125 11.707031 17.5625 11.398438 L 17.816406 11.324219 C 18.875 11.042969 19.957031 11.054688 21.046875 11.054688 M 14.757812 12.796875 L 14.355469 12.984375 C 12.109375 14.117188 10.265625 15.925781 8.894531 18.007812 C 7.445312 20.300781 6.792969 22.839844 6.585938 25.515625 C 6.523438 27.996094 7.179688 30.570312 8.335938 32.757812 C 8.914062 33.804688 9.605469 34.765625 10.410156 35.648438 L 10.71875 35.980469 C 12.449219 37.796875 14.597656 39.03125 16.980469 39.765625 C 17.769531 39.992188 18.570312 40.140625 19.382812 40.273438 L 19.71875 40.328125 C 22.046875 40.667969 24.492188 40.121094 26.65625 39.273438 C 28.917969 38.335938 30.984375 36.855469 32.492188 34.921875 C 34.261719 32.574219 35.183594 30.023438 35.574219 27.132812 C 35.871094 24.703125 35.320312 22.195312 34.382812 19.949219 C 33.832031 18.722656 33.164062 17.597656 32.277344 16.582031 L 31.96875 16.214844 C 30.316406 14.300781 28.277344 12.953125 25.890625 12.125 C 25.546875 12.019531 25.199219 11.917969 24.851562 11.816406 L 24.394531 11.683594 C 21.199219 10.851562 17.710938 11.417969 14.757812 12.796875 "/></g></g></svg>