<svg xmlns="http://www.w3.org/2000/svg" xmlns:xlink="http://www.w3.org/1999/xlink" width="200" zoomAndPan="magnify" viewBox="0 0 150 52.499999" height="70" preserveAspectRatio="xMidYMid meet" version="1.2"><defs><clipPath id="19da55e4ce"><path d="M 7 4.621094 L 49 4.621094 L 49 28 L 7 28 Z M 7 4.621094 "/></clipPath><clipPath id="6ff4ca5788"><path d="M 6.847656 22 L 50 22 L 50 47.710938 L 6.847656 47.710938 Z M 6.847656 22 "/></clipPath><clipPath id="727145bfb1"><path d="M 130 19 L 142.804688 19 L 142.804688 36 L 130 36 Z M 130 19 "/></clipPath></defs><g id="4313524268"><g clip-rule="nonzero" clip-path="url(#19da55e4ce)"><path style=" stroke:none;fill-rule:nonzero;fill:#899b94;fill-opacity:1;" d="M 20.644531 19.585938 L 24.820312 19.585938 C 25.875 19.585938 26.394531 19.867188 26.917969 20.738281 L 31.234375 27.453125 L 31.390625 27.453125 L 31.390625 19.585938 L 48.480469 19.585938 C 45.769531 10.917969 37.695312 4.644531 28.148438 4.644531 C 18.601562 4.644531 10.527344 10.914062 7.8125 19.585938 Z M 20.644531 19.585938 "/></g><g clip-rule="nonzero" clip-path="url(#6ff4ca5788)"><path style=" stroke:none;fill-rule:nonzero;fill:#899b94;fill-opacity:1;" d="M 49.195312 22.675781 L 44.519531 22.675781 L 44.519531 35.261719 L 40.28125 35.261719 L 40.28125 22.675781 L 35.421875 22.675781 L 35.421875 35.261719 L 32.597656 35.261719 C 31.542969 35.261719 31.03125 34.949219 30.492188 34.085938 L 25.007812 25.878906 L 24.917969 25.878906 L 24.917969 35.261719 L 20.792969 35.261719 L 20.792969 22.675781 L 15.960938 22.675781 L 15.960938 35.261719 L 11.644531 35.261719 L 11.644531 22.675781 C 10.132812 22.671875 8.617188 22.675781 7.101562 22.675781 C 6.929688 23.742188 6.847656 24.832031 6.847656 25.941406 C 6.847656 37.703125 16.386719 47.253906 28.148438 47.253906 C 39.910156 47.253906 49.449219 37.6875 49.449219 25.941406 C 49.449219 24.832031 49.359375 23.742188 49.195312 22.675781 Z M 49.195312 22.675781 "/></g><path style=" stroke:none;fill-rule:nonzero;fill:#899b94;fill-opacity:1;" d="M 67.96875 30.578125 L 67.96875 30.621094 C 67.96875 31.953125 67.535156 33.03125 66.773438 33.832031 C 66.210938 34.425781 65.46875 34.871094 64.570312 35.144531 C 63.867188 35.359375 63.089844 35.472656 62.207031 35.472656 C 61.449219 35.472656 60.683594 35.390625 59.945312 35.21875 C 58.363281 34.859375 56.851562 34.109375 55.566406 32.96875 L 56.863281 31.417969 C 56.988281 31.261719 57.117188 31.15625 57.253906 31.082031 C 57.417969 30.988281 57.597656 30.953125 57.765625 30.949219 C 57.992188 30.949219 58.210938 31.003906 58.386719 31.121094 C 58.402344 31.132812 58.417969 31.140625 58.429688 31.152344 C 59.601562 31.949219 60.863281 32.433594 62.261719 32.433594 C 63.664062 32.433594 64.542969 31.882812 64.542969 30.957031 L 64.542969 30.914062 C 64.542969 30.027344 63.984375 29.589844 61.378906 28.921875 C 58.199219 28.113281 56.195312 27.226562 56.195312 24.125 L 56.195312 24.089844 C 56.195312 21.257812 58.464844 19.367188 61.671875 19.367188 C 62.605469 19.367188 63.476562 19.484375 64.292969 19.710938 C 65.484375 20.039062 66.550781 20.601562 67.496094 21.359375 L 66.425781 22.917969 C 66.355469 23.023438 66.28125 23.117188 66.210938 23.195312 C 66.007812 23.425781 65.6875 23.542969 65.441406 23.542969 C 65.066406 23.550781 64.9375 23.449219 64.675781 23.3125 C 63.640625 22.742188 62.625 22.410156 61.628906 22.410156 C 60.84375 22.410156 60.289062 22.625 59.964844 22.957031 C 59.738281 23.183594 59.625 23.464844 59.625 23.773438 L 59.625 23.816406 C 59.625 24.84375 60.285156 25.183594 63 25.875 C 66.191406 26.707031 67.96875 27.847656 67.96875 30.578125 Z M 67.96875 30.578125 "/><path style=" stroke:none;fill-rule:nonzero;fill:#899b94;fill-opacity:1;" d="M 70.585938 19.582031 L 70.585938 35.265625 L 74.039062 35.265625 L 74.039062 30.558594 L 76.667969 30.558594 C 78.683594 30.558594 80.464844 29.941406 81.621094 28.730469 C 82.484375 27.828125 83 26.597656 83 25.046875 L 83 25 C 83 23.332031 82.386719 21.929688 81.269531 20.96875 C 80.242188 20.089844 78.796875 19.582031 77.007812 19.582031 Z M 74.039062 22.679688 L 76.726562 22.679688 C 77.867188 22.679688 78.671875 23.070312 79.097656 23.679688 C 79.371094 24.066406 79.503906 24.550781 79.503906 25.070312 C 79.503906 25.816406 79.230469 26.46875 78.613281 26.921875 C 78.152344 27.257812 77.570312 27.460938 76.695312 27.460938 L 74.039062 27.460938 Z M 74.039062 22.679688 "/><path style=" stroke:none;fill-rule:nonzero;fill:#899b94;fill-opacity:1;" d="M 92.191406 19.363281 C 87.742188 19.363281 84.136719 22.972656 84.136719 27.421875 C 84.136719 31.871094 87.742188 35.476562 92.191406 35.476562 C 96.644531 35.476562 100.25 31.871094 100.25 27.421875 C 100.25 22.972656 96.644531 19.363281 92.191406 19.363281 Z M 92.195312 22.628906 C 94.839844 22.628906 96.988281 24.773438 96.988281 27.421875 C 96.988281 30.066406 94.839844 32.214844 92.195312 32.214844 C 89.546875 32.214844 87.398438 30.070312 87.398438 27.421875 C 87.398438 24.777344 89.546875 22.628906 92.195312 22.628906 Z M 92.195312 22.628906 "/><path style=" stroke:none;fill-rule:nonzero;fill:#899b94;fill-opacity:1;" d="M 102.480469 19.582031 L 102.480469 35.265625 L 105.9375 35.265625 L 105.9375 30.246094 L 108.644531 30.246094 L 111.40625 34.375 C 111.609375 34.699219 111.828125 34.929688 112.152344 35.082031 C 112.332031 35.183594 112.574219 35.265625 113.054688 35.265625 L 116.039062 35.265625 L 112.203125 29.65625 C 112.984375 29.375 113.6875 28.949219 114.25 28.363281 C 115.0625 27.511719 115.566406 26.332031 115.566406 24.808594 C 115.566406 23.027344 114.933594 21.722656 113.886719 20.863281 C 112.832031 19.996094 111.359375 19.582031 109.6875 19.582031 Z M 105.9375 22.679688 L 109.367188 22.679688 C 110.28125 22.679688 111.078125 22.914062 111.570312 23.472656 C 111.882812 23.824219 112.074219 24.320312 112.074219 24.929688 C 112.074219 25.503906 111.921875 25.980469 111.570312 26.371094 C 111.074219 26.921875 110.28125 27.144531 109.4375 27.144531 L 105.9375 27.144531 Z M 105.9375 22.679688 "/><path style=" stroke:none;fill-rule:nonzero;fill:#899b94;fill-opacity:1;" d="M 116.859375 19.582031 L 116.859375 22.679688 L 121.632812 22.679688 L 121.632812 35.265625 L 125.089844 35.265625 L 125.089844 22.679688 L 128.730469 22.679688 C 129.351562 22.679688 129.855469 22.179688 129.855469 21.554688 L 129.855469 19.582031 Z M 116.859375 19.582031 "/><g clip-rule="nonzero" clip-path="url(#727145bfb1)"><path style=" stroke:none;fill-rule:nonzero;fill:#899b94;fill-opacity:1;" d="M 142.804688 30.578125 L 142.804688 30.621094 C 142.804688 31.953125 142.371094 33.03125 141.609375 33.832031 C 141.042969 34.425781 140.304688 34.871094 139.40625 35.144531 C 138.703125 35.359375 137.925781 35.472656 137.042969 35.472656 C 136.285156 35.472656 135.519531 35.390625 134.777344 35.21875 C 133.199219 34.859375 131.683594 34.109375 130.402344 32.96875 L 131.699219 31.417969 C 131.824219 31.261719 131.953125 31.15625 132.085938 31.082031 C 132.253906 30.988281 132.429688 30.953125 132.597656 30.949219 C 132.828125 30.949219 133.046875 31.003906 133.222656 31.121094 C 133.238281 31.132812 133.25 31.140625 133.265625 31.152344 C 134.4375 31.949219 135.699219 32.433594 137.097656 32.433594 C 138.5 32.433594 139.378906 31.882812 139.378906 30.957031 L 139.378906 30.914062 C 139.378906 30.027344 138.820312 29.589844 136.214844 28.921875 C 133.035156 28.113281 131.03125 27.226562 131.03125 24.125 L 131.03125 24.089844 C 131.03125 21.257812 133.300781 19.367188 136.507812 19.367188 C 137.441406 19.367188 138.3125 19.484375 139.128906 19.710938 C 140.320312 20.039062 141.386719 20.601562 142.332031 21.359375 L 141.261719 22.917969 C 141.191406 23.023438 141.117188 23.117188 141.046875 23.195312 C 140.84375 23.425781 140.523438 23.542969 140.273438 23.542969 C 139.902344 23.550781 139.773438 23.449219 139.507812 23.3125 C 138.476562 22.742188 137.460938 22.410156 136.464844 22.410156 C 135.679688 22.410156 135.125 22.625 134.796875 22.957031 C 134.574219 23.183594 134.460938 23.464844 134.460938 23.773438 L 134.460938 23.816406 C 134.460938 24.84375 135.117188 25.183594 137.835938 25.875 C 141.027344 26.707031 142.804688 27.847656 142.804688 30.578125 Z M 142.804688 30.578125 "/></g></g></svg>